<svg xmlns="http://www.w3.org/2000/svg" xmlns:xlink="http://www.w3.org/1999/xlink" width="1920" height="1080" viewBox="0 0 1920 1080">
  <defs>
    <clipPath id="clip-bg">
      <rect width="1920" height="1080"/>
    </clipPath>
  </defs>
  <g id="bg" clip-path="url(#clip-bg)">
    <rect width="1920" height="1080" fill="#000c04"/>
    <g id="Rectangle_10" data-name="Rectangle 10" transform="translate(680.91 -257.213) rotate(34)" fill="rgba(255,255,255,0)" stroke="#fff" stroke-width="4" opacity="0.51">
      <rect width="1285.008" height="825.502" stroke="none"/>
      <rect x="2" y="2" width="1281.008" height="821.502" fill="none"/>
    </g>
    <g id="Rectangle_11" data-name="Rectangle 11" transform="translate(335.91 -276.213) rotate(34)" fill="rgba(255,255,255,0)" stroke="#fff" stroke-width="4" opacity="0.51">
      <rect width="1285.008" height="825.502" stroke="none"/>
      <rect x="2" y="2" width="1281.008" height="821.502" fill="none"/>
    </g>
    <g id="Rectangle_12" data-name="Rectangle 12" transform="translate(1099.378 -245.213) rotate(34)" fill="rgba(255,255,255,0)" stroke="#fff" stroke-width="4" opacity="0.51">
      <rect width="1285.008" height="825.502" stroke="none"/>
      <rect x="2" y="2" width="1281.008" height="821.502" fill="none"/>
    </g>
    <g id="Rectangle_1" data-name="Rectangle 1" transform="translate(16.963 111.136) rotate(34)" fill="rgba(255,255,255,0)" stroke="#fff" stroke-width="4">
      <rect width="182.54" height="182.54" stroke="none"/>
      <rect x="2" y="2" width="178.54" height="178.54" fill="none"/>
    </g>
    <g id="Rectangle_2" data-name="Rectangle 2" transform="translate(67.963 111.136) rotate(34)" fill="rgba(255,255,255,0)" stroke="#fff" stroke-width="4">
      <rect width="182.54" height="182.54" stroke="none"/>
      <rect x="2" y="2" width="178.54" height="178.54" fill="none"/>
    </g>
    <g id="Rectangle_3" data-name="Rectangle 3" transform="translate(180.963 87.136) rotate(34)" fill="rgba(255,255,255,0)" stroke="#fff" stroke-width="4">
      <rect width="182.54" height="182.54" stroke="none"/>
      <rect x="2" y="2" width="178.54" height="178.54" fill="none"/>
    </g>
    <g id="Rectangle_4" data-name="Rectangle 4" transform="translate(1843.963 664.13) rotate(34)" fill="rgba(255,255,255,0)" stroke="#fff" stroke-width="4">
      <rect width="182.54" height="182.54" stroke="none"/>
      <rect x="2" y="2" width="178.54" height="178.54" fill="none"/>
    </g>
    <g id="Rectangle_5" data-name="Rectangle 5" transform="translate(1824.963 523) rotate(34)" fill="rgba(255,255,255,0)" stroke="#fff" stroke-width="4">
      <rect width="182.54" height="182.54" stroke="none"/>
      <rect x="2" y="2" width="178.54" height="178.54" fill="none"/>
    </g>
    <g id="Rectangle_6" data-name="Rectangle 6" transform="translate(1717.259 616.13) rotate(34)" fill="rgba(255,255,255,0)" stroke="#fff" stroke-width="4">
      <rect width="182.54" height="182.54" stroke="none"/>
      <rect x="2" y="2" width="178.54" height="178.54" fill="none"/>
    </g>
    <g id="Rectangle_7" data-name="Rectangle 7" transform="translate(1368.667 -92.87) rotate(34)" fill="rgba(255,255,255,0)" stroke="#fff" stroke-width="4">
      <rect width="182.54" height="182.54" stroke="none"/>
      <rect x="2" y="2" width="178.54" height="178.54" fill="none"/>
    </g>
    <g id="Rectangle_8" data-name="Rectangle 8" transform="translate(1468.075 -154.87) rotate(34)" fill="rgba(255,255,255,0)" stroke="#fff" stroke-width="4">
      <rect width="182.54" height="182.54" stroke="none"/>
      <rect x="2" y="2" width="178.54" height="178.54" fill="none"/>
    </g>
    <g id="Rectangle_9" data-name="Rectangle 9" transform="translate(1368.667 -154.87) rotate(34)" fill="rgba(255,255,255,0)" stroke="#fff" stroke-width="4">
      <rect width="182.54" height="182.54" stroke="none"/>
      <rect x="2" y="2" width="178.54" height="178.54" fill="none"/>
    </g>
  </g>
</svg>
